<svg id="Layer_1" data-name="Layer 1" xmlns="http://www.w3.org/2000/svg" viewBox="0 0 512 512"><title>boxing-gloves-handdrawn</title><path d="M276.13,314.7c-3.08,5.34,99.24,50.16,96.14,55.54-2.7,4.69-90-53.9-92.58-49.5-1.81,3.14,86.51,45.87,84.73,49-2.39,4.14-71.3-42.36-73.25-39-2.78,4.83,68.79,34.67,66.6,38.47-1.61,2.79-67.43-44.63-69.92-40.31-1.85,3.21,71.41,34.34,68.41,39.52-1.69,2.94-61.34-37-63.83-32.66-2,3.44,51.39,24.61,49.19,28.42-1.14,2-43.12-26.5-44-25-2,3.54,47.12,22.59,45.12,26.07-.55,1-28.45-13.71-29-12.8s13.24,6.32,12.66,7.32c-.37.64-13.26-8-13.6-7.45s6.12,2.38,5.62,3.25" fill="none" stroke="#999" stroke-linecap="round" stroke-linejoin="round" stroke-width="1.03"/><path d="M366.68,371c-.17.29,7.71,4.06,7.54,4.36-.3.52-8.65-2.85-8.9-2.42-.14.24,7.71,4.1,7.56,4.37-.25.43-8.76-2.73-9-2.28s7.69,4.19,7.58,4.38-9.8-1.26-10-.93,7.74,4.18,7.61,4.4-1.67-.93-1.71-.88c-.17.29,1.68.75,1.58.91-.2.34-9-2.32-9.16-2s7.8,4.12,7.63,4.41c-.07.12-2.41,1.47-2.47,1.58-.21.37.89.07.7.4s-7.85-3.61-8.11-3.17,7.84,4.11,7.66,4.42-8.29-3.61-8.59-3.09c-.21.36,7.87,4.08,7.67,4.43-.31.54-10.24-.84-10.51-.37s7.86,4.17,7.7,4.45c-.28.48-7.58-4.68-7.78-4.33-.11.18,7.85,4.19,7.7,4.45-.24.42-10.25-.87-10.48-.48-.11.19,7.88,4.21,7.73,4.47s-10.36-.77-10.58-.4c-.11.19,7.92,4.2,7.76,4.48s-8.62-3.34-8.88-2.89c-.17.29,8,4.17,7.77,4.49-.31.54-8.71-3.25-9-2.69-.18.31,8,4.12,7.78,4.5s-9.35-2.34-9.63-1.85c-.19.33,7.91,4.3,7.8,4.5-.28.49-8.12-4.1-8.31-3.78s8,4.22,7.8,4.51-10.07-1.32-10.24-1,8,4.28,7.82,4.52-8.06-4.26-8.35-3.76c-.11.19,8,4.25,7.82,4.52-.32.55-8.15-4.13-8.4-3.69s8,4.14,7.83,4.52c-.33.57-10.31-1.07-10.61-.53-.14.24,8,4.28,7.84,4.53-.25.43-10-1.55-10.19-1.17-.13.22,8.06,4.18,7.85,4.54S334,417.7,333.89,418s8,4.3,7.85,4.54c-.31.54-7.83-4.66-8.12-4.15-.14.24,8.06,4.18,7.86,4.54s-3.6-.57-3.68-.43.67.11.55.32-5.91-2.8-6.14-2.4,8.06,4.2,7.86,4.54-10.48-.9-10.82-.3c-.23.39,8,4.33,7.86,4.54s-10.15-1.32-10.33-1,8,4.22,7.85,4.54-8.38-3.87-8.66-3.38c-.1.18,8,4.27,7.85,4.53s-6.9,1.36-7.06,1.64,4,2,3.83,2.22c-.29.5-7.39-4.5-7.63-4.09-.13.23,7.93,4.32,7.82,4.52s-8.41-3.75-8.68-3.28,7.92,4.3,7.81,4.51c-.34.58-9.32-4.51-9.54-4.13s9,4.8,8.84,5.11c-1,1.8-32.89-17.72-34.18-15.48-1,1.69,23.59,11.48,22.66,13.09" fill="none" stroke="#999" stroke-linecap="round" stroke-linejoin="round" stroke-width="1.03"/><path d="M494.46,153.37c-.29.5,10.08,5.13,9.78,5.65s-9.32-6-9.68-5.39,9.94,5.29,9.74,5.63-8.57-3.21-8.73-2.94,9.63,5.07,9.42,5.44-7.89-2.75-8.19-2.23c-.14.24,1.26.42,1.13.65s.28,3.74.2,3.87c-.17.29,8.6,4.59,8.44,4.87s-7.54-1.6-7.7-1.34,8.22,4.45,8.09,4.67-7.59-3.8-7.82-3.39,8.14,4.3,8,4.6-6.81.38-7,.67,2,.8,1.82,1-1.7,3.91-1.86,4.18,7.37,3.9,7.21,4.17-7.42,1.26-7.56,1.49,7.33,3.83,7.16,4.14-6.94-3.9-7.21-3.43c-.11.19,7.31,3.78,7.12,4.11s-6.87-4.42-7.13-4c-.11.2,7.25,3.88,7.11,4.11-.24.41-7-3.52-7.18-3.16-.09.15,7.18,3.88,7.06,4.08-.25.44-6.84-4.39-7.07-4-.1.17,7.15,3.92,7.06,4.08s-7.09-2.08-7.35-1.64c-.15.27,7.21,3.8,7,4.07s-7.64-.45-7.76-.25,7.37,4,7.26,4.19-7.28-3-7.56-2.56c-.13.22,7.35,3.93,7.22,4.17-.24.41-7.09-3.84-7.36-3.36-.14.24,7.39,3.81,7.2,4.16s-7.94-1-8.07-.8,7.51,3.94,7.34,4.24-7.47-3.52-7.63-3.24,7.6,4,7.41,4.28-7.93-2.26-8.06-2,7.66,4.2,7.56,4.37c-.3.51-9.09.26-9.27.58s8.16,4.28,8,4.6-8.62-2.71-8.78-2.43,7.65,3.87,7.42,4.29-8.44-1.65-8.73-1.14,8.62,4.66,8.48,4.9-3.27-.59-3.33-.49c-.23.4,2.95,1.39,2.81,1.62s-9.28-1.09-9.47-.76,6.17,3.15,6,3.46c-.28.49-7.82-1.82-8-1.59s9.31,5.1,9.19,5.31-3.48-1.84-3.59-1.64,2.87,1.26,2.69,1.56c-.32.55-10.26-1.31-10.54-.83s5.46,2.59,5.22,3c-.13.23-6.78-.77-6.94-.49s9.85,5.28,9.67,5.59c-.31.54-10-.43-10.21,0-.13.23,4.82,2.42,4.66,2.69s-9.53-.4-9.77,0,9.67,5,9.43,5.44-10.71-3.88-10.95-3.47,9.32,4.88,9.1,5.26-9.4-1.43-9.66-1,9.2,5,9.07,5.24-1.43,4.65-1.55,4.85.18-.19.05,0-7.7-3.36-7.89-3,8,4.26,7.84,4.53c-.25.43-9-1-9.24-.58-.16.29,8.06,4.14,7.84,4.53-.34.59-10.23-.58-10.42-.24s8.42,4.4,8.21,4.75-9.57-3.05-9.76-2.73,8.56,4.54,8.39,4.85-9.35-4.05-9.7-3.43c-.17.29,8.66,4.72,8.53,4.93-.4.7-12.12-2-12.5-1.3-.16.28,8.74,4.69,8.58,5S472,267.3,472,267.39c-.18.31.49,0,.37.21s-8.93-.92-9.1-.61,7,3.66,6.86,4-8.29-1.74-8.49-1.39,6.87,3.75,6.77,3.91c-.25.43-7.26-3.17-7.38-3s6.88,3.63,6.73,3.89-8.18-1.64-8.44-1.2c-.15.27,6.71,3.67,6.62,3.82-.23.39-6.74-3.66-6.95-3.31s6.74,3.56,6.59,3.81-6.45-4.08-6.71-3.62c-.17.29,6.69,3.62,6.59,3.8s-8.44-1-8.71-.57c-.14.24,6.6,3.55,6.49,3.75-.25.43-8.64-.92-8.94-.41-.12.2,6.63,3.63,6.54,3.78-.27.47-8.8-.76-9-.47s6.69,3.61,6.58,3.8-7.38-2.77-7.53-2.51,6.71,3.61,6.59,3.81c-.25.44-8-1.32-8.2-1s4.88,2.64,4.8,2.77c-.28.48-8,.57-8.17.79s6.92,3.75,6.81,3.93-9.67-.56-9.9-.17,7.18,3.77,7,4.05-9.65-.94-9.85-.59,7.29,4,7.18,4.15-8.07-3.25-8.36-2.76c-.11.18,7.47,3.86,7.28,4.2-.3.51-8.2-3.29-8.4-2.94s7.57,4,7.39,4.27-8.7-2.95-8.93-2.55,7.75,4,7.54,4.36-9.25-2.55-9.43-2.24,7.84,4.27,7.72,4.46c-.29.51-9.46-2.68-9.74-2.21-.12.21,8.14,4.19,7.92,4.57s-8.44-4.1-8.63-3.77,8.19,4.23,8,4.61-10.6-1.85-10.81-1.49,8.42,4.43,8.23,4.76-8.33-4.88-8.66-4.31c-.15.26,8.44,4.51,8.28,4.79s-10.09-3.06-10.33-2.65,8.71,4.62,8.53,4.93c-.27.47-8.62-5.06-9-4.49-.21.36,8.8,4.57,8.58,5s-8.83-4.88-9.11-4.41,8.85,4.62,8.64,5-9.27-4.44-9.43-4.16,8.94,4.65,8.72,5-5.41-2.73-5.51-2.56,1.66.66,1.53.88-5-3.2-5.17-2.9,9,4.68,8.76,5.06-9.32-4.59-9.49-4.3,9.08,4.68,8.83,5.1c-.37.64-10.75-3.05-11-2.62s8.22,4.3,8,4.64-10.76-2.23-11-1.87,9.54,5.17,9.39,5.42c-.42.73-11.81-3.31-12.17-2.68-.21.36,9.86,5.31,9.69,5.6s-11.59-3.88-11.79-3.52,10.12,5.37,9.92,5.73c-.37.64-10.95-4.89-11.19-4.47s10.28,5.42,10.05,5.81-4.28-1.93-4.43-1.66,2.4.72,2.11,1.22c-.17.29-3.67,3.13-3.8,3.36s1-.09.68.4c-.43.75-12-2.29-12.38-1.71s11.14,5.74,10.83,6.26-11.21-6.17-11.54-5.59c-.19.33,11.24,5.72,10.91,6.3-.44.76-11.33-6.08-11.54-5.7s11.31,5.75,11,6.34-11.48-6.25-11.94-5.46c-.21.36,11.28,6,11.06,6.39-.42.73-13.56-4.31-13.8-3.89-.36.63,11.6,6,11.28,6.52s-13.23-5.12-13.7-4.3c-.26.45,11.82,6,11.48,6.63-.51.88-14-4.84-14.44-4-.33.57,11.86,6.47,11.7,6.76-.45.79-14.16-4.77-14.39-4.37s12.18,6.21,11.82,6.83c-.2.35-10.84-3.31-11.18-2.71s2.94,1.28,2.76,1.59-5.45-1.29-5.55-1.12c-.39.68,7.32,3.49,7,4s-8.8-5.49-9.13-4.93,12.32,6.39,12,6.94c-.11.18-5.87-3.48-6-3.3-.29.51,2.48.82,2.21,1.28-.39.67-11.77-2.29-12.19-1.57-.2.35,12.3,6.47,12,6.95s-13.77-5.7-14-5.27c-.35.61,12.31,6.39,12,6.93s-11.87-7.41-12.27-6.7,12.31,6.33,12,6.92c-.24.41-13.83-5.63-14.1-5.16-.38.66,12.18,6.18,11.81,6.82s-12.88-6.29-13.24-5.66c-.17.3,12,6.23,11.71,6.77s-12.58-6.39-12.94-5.78c-.24.42,12,6.1,11.64,6.72" fill="none" stroke="#999" stroke-linecap="round" stroke-linejoin="round" stroke-width="1.03"/><path d="M331.36,113.24c-.07.13,6.31,3.46,6.23,3.6-.46.79-12.94-3.7-13.41-2.88s9.37,3.9,8.72,5c-.07.12-3.33-.41-3.4-.28-.53.92,11.65,5.66,11.19,6.46s-18.89-10.74-19.39-9.88c-.8,1.38,15.2,7.27,14.55,8.4-.18.31-9.92-.66-10.13-.28-.72,1.25,17.9,8.37,17,9.85-.41.7-21-13.22-21.5-12.36-1,1.68,11.49,5.44,11,6.34-.29.5-11.3-7.3-11.71-6.58-.61,1.06,23.61,11,22.48,13-.4.7-18.31-8.71-18.94-7.61-.84,1.46,16.42,7.77,15.68,9.06s-21.29-9.15-21.65-8.52c-.72,1.25,16.48,6.51,15.18,8.77-.42.73-19.7-9.61-20.21-8.71-1.18,2.05,19.71,8.27,18.36,10.61-.61,1.06-18.43-11.07-19.05-10-1.23,2.14,20.19,9,19,11-.48.83-21.06-13.3-21.73-12.15-1.29,2.24,26.48,12.15,25.12,14.51-.51.88-25.31-12-26.17-10.56-1.45,2.52,26.56,12.6,25.37,14.66-1,1.71-32.13-19-33.18-17.2-1.43,2.48,28.13,14.31,27.29,15.77-.72,1.24-29.22-16.9-30.38-14.9-.76,1.31,30.09,14.84,29,16.75-.86,1.49-27.9-15.95-28.49-14.94-.69,1.19,27.79,13.13,26.53,15.32-.52.89-23.86-9.93-24.43-8.95-1.34,2.33,20.89,8.79,19.47,11.25-.82,1.42-21.32-9.3-22.1-7.94-1,1.7,19.37,8.05,18,10.41-.68,1.18-19.2-6.76-19.6-6.06-.77,1.33,24.08,10.67,22.68,13.1C318,158.6,296,144.4,295.59,145.12c-1.18,2,27.34,13.8,26.48,15.3s-35.58-19.3-36.82-17.15c-1.34,2.31,35.4,17.09,33.94,19.61-.7,1.22-38.94-20.82-39.76-19.4-1,1.82,27.88,13.25,26.64,15.39-.44.76-23.94-11.76-24.43-10.92-1.22,2.11,27.93,13.87,27,15.57-.65,1.13-31.19-14.34-32-12.91-1.11,1.93,31.18,14.55,29.68,17.15-.62,1.07-28.34-14-29.17-12.58s30.7,14.79,29.42,17c-.93,1.61-22.93-14.75-23.83-13.2-1.2,2.09,26.77,12.35,25.42,14.69-.76,1.32-33.4-19.41-34.11-18.18s37.53,18.25,36,20.82c-1,1.71-29.14-15.38-30.28-13.39-1.54,2.66,27.42,13,26.18,15.12-.51.89-28.14-16.94-28.93-15.57-.91,1.58,28.46,13.12,27,15.61-.78,1.35-30.68-15.1-31.87-13s24.72,12.38,23.9,13.8c-.36.62-17-8.53-17.62-7.4C277,174,295,178.14,293.71,180.3c-.66,1.14-16.42-9.19-17-8.14-1.08,1.88,18.16,7,16.65,9.62-.75,1.31-25.23-16-26.13-14.48-1.2,2.08,29.18,14.93,28.35,16.38-.55,1-24.16-11.08-24.8-10-.82,1.42,33.21,17.65,32.55,18.8-1.16,2-32.84-20.41-34.16-18.11s28.09,14.21,27.21,15.72c-1,1.81-31.79-13.78-32.38-12.76-1.37,2.37,37.58,19.52,36.63,21.16-1.18,2-35-20.33-35.82-19-3.29,5.71,174.71,89.07,169.58,98C427.74,289,267.63,169.05,261.48,179.71c-5.09,8.83,181,94.55,176.63,102-5,8.64-174.17-102.93-177.34-97.44-4,6.92,186.56,92.9,180.12,104.06C437.81,293.72,271.64,177,265.21,188.15c-7.17,12.42,179.53,92.78,174.8,101-3.84,6.66-175.13-110.73-180.14-102.05C253,199,438.63,279.17,433.79,287.56c-4.36,7.56-165.82-106.08-170.4-98.14s178.75,92.18,174,100.5c-4.21,7.29-166.2-107-172.19-96.58C259.56,203,435,281.49,430.67,288.95c-3.65,6.32-162-100.51-167.44-91.16-6.28,10.89,167.38,86.82,163.11,94.23-6.52,11.3-165.27-100.4-168.48-94.84-6,10.44,175.31,93.33,171.87,99.3C425.37,304,260.63,193,257.26,198.83c-3.48,6,179.91,90.23,174,100.51-5.81,10.07-169-107.73-174.14-98.84-4,6.86,176.42,91.49,171.91,99.31-4.41,7.65-162.43-102.61-168.31-92.42-4.9,8.49,167.73,85.67,162.87,94.09-4.18,7.25-158.78-97-162.91-89.82S423.32,291,417,302c-6.48,11.24-155.72-103-161.47-93-4.78,8.29,165.65,85.46,161.22,93.14-3.4,5.89-148.93-93.27-154.1-84.33-4.82,8.35,155.64,77.27,150.17,86.76C407.92,313,258.5,204,252.26,214.82c-5.73,9.93,166.75,82.9,160.94,93-3.11,5.39-154.94-98.19-160.39-88.75-4.8,8.32,167.91,87,163.58,94.5-3.13,5.43-151.26-95.5-156.86-85.79-5.34,9.25,155.53,79.18,150.91,87.19-3.51,6.09-147.38-90.77-151-84.56-4.91,8.51,149.69,73.53,144.09,83.24C398.9,321.71,259.8,224,256.63,229.47c-4.22,7.32,150.87,79.43,147.53,85.23C398.79,324,263.46,223.6,258,233c-4,6.87,157.14,75.64,150.58,87-5.83,10.11-151.41-98.55-156.33-90-5.56,9.63,163.17,86.44,159.79,92.31-5.44,9.42-149.3-89.53-152.13-84.63-5.82,10.08,153.65,76.39,148.29,85.67-3.29,5.69-142.32-92.06-148.18-81.9-2.74,4.75,142.89,72,138.32,79.91-3.46,6-131.26-83.5-135.47-76.19-3.62,6.27,139.56,70.08,135,78-2.68,4.65-133-82.84-136.37-77-2.85,4.95,143.58,70.54,138.2,79.84-4.92,8.53-135.93-89.63-141.32-80.3-3.57,6.19,142.06,73.85,138.5,80-3.09,5.35-137.31-81-140.08-76.24-3.39,5.87,138.65,71.26,134.82,77.89-3.16,5.48-123.44-74.42-127.24-67.84-5.59,9.68,135.72,66.26,130.46,75.37-3.66,6.35-126.37-77.93-129-73.4-5.31,9.2,129,63,124,71.62-4.79,8.31-118.45-73.86-121.12-69.22-5.1,8.84,129.9,65.37,125.72,72.63-4.6,8-127.9-80.08-132.49-72.12-3.34,5.78,129.73,62.43,124.31,71.82-3.46,6-114-74.46-117.92-67.67C263.9,276.25,395.5,331,390.77,339.24c-4.1,7.11-122.59-76.49-127.15-68.58C260.42,276.21,392.9,336,388.83,343c-3.34,5.78-125.29-79.29-129.8-71.48-2.53,4.38,129.07,65.6,125.19,72.33-4.37,7.58-122.17-72.45-124.55-68.33-5,8.75,131.65,65.76,127.19,73.48-4.27,7.39-115.43-71.52-118.82-65.64-2.58,4.47,111.19,52.56,106.14,61.32-2.88,5-107.52-64.05-110.42-59-3.39,5.88,113.21,54.13,108.33,62.59-3,5.14-107.53-65.6-111-59.53-3.25,5.64,120.27,62.37,117.19,67.7C374,363.71,269.2,285.68,265.1,292.79c-2.94,5.1,107.16,53.45,103.5,59.8-3.17,5.5-93.75-59.47-96.16-55.3-2.24,3.89,104.52,54.17,101.83,58.83-2.08,3.6-98.84-57.41-101-53.73-2.34,4.06,106.24,54.68,103.34,59.7-2.16,3.75-101.94-64.24-105.8-57.56S384,363.63,381.26,368.3c-3.21,5.57-113.85-66.54-116.58-61.8-3.54,6.14,114.36,58.27,111,64.12C372,377,260.2,298.71,257.08,304.13c-.25.43,10.6,5.48,10.32,6s-9.17-1.71-9.36-1.38.56-.33.28.16c-.11.19-6.8,1.06-7,1.41s10.16,5.56,10,5.79c-.24.42-10-5.93-10.22-5.59-.29.51,10.22,5.44,10,5.79s-8.25-.69-8.52-.21c-.18.31,1.77.58,1.58.91s-3.8.83-3.93,1.07c-.25.43,3.72,1.49,3.43,2-.19.34-10.37-1.38-10.63-.93-.15.26,9.74,5.32,9.61,5.55-.38.66-12.79-2.32-13-1.89-.16.27,9.7,5,9.43,5.45s-9.28-5.83-9.6-5.27c-.13.22,9.56,5.21,9.43,5.45-.38.66-9.77-5.28-10.08-4.75-.19.32,9.57,5.12,9.39,5.43-.38.66-12-2.85-12.2-2.43s9.4,5.08,9.25,5.34c-.25.43-10.28-4.4-10.52-4s9.34,5,9.19,5.31-8.41-3.12-8.55-2.88.22-.28,0,0c-.07.12-2.6-.42-2.65-.35-.22.38,9.31,4.85,9.09,5.25s-9.64-3.7-10-3.14,2.7,1.14,2.52,1.46-5.61,1.45-5.77,1.72,4.28,1.92,4,2.34c-.1.18-5.74-1.51-5.91-1.22s9,4.74,8.78,5.07c-.31.54-9.51-4.44-9.72-4.07s8.87,4.82,8.73,5c-.35.61-10-3.83-10.18-3.5s8.88,4.62,8.66,5c-.35.6-9.07-4.73-9.33-4.29s8.88,4.54,8.63,5-4.78.89-4.91,1.11,2.06.8,1.89,1.09-10.36-2.28-10.62-1.83c-.11.19,8.48,4.64,8.37,4.84-.29.5-11.34-1.87-11.63-1.35-.14.24,8.36,4.48,8.21,4.74-.31.54-11-2-11.32-1.42-.18.32,8.21,4.38,8.05,4.65-.28.49-9.18-3.65-9.48-3.12-.22.37,8.2,4.23,8,4.61s-6.9-2.54-7.11-2.16,6.2,3.06,6,3.45-7.94-4.92-8.23-4.41c-.17.3,9.75,5.08,9.51,5.49s-7.15-3.45-7.32-3.16c-.28.48,8.09,3.93,7.77,4.49s-9.12-2.5-9.27-2.23c-.26.45,12.1,6.54,11.91,6.88s-9.26-2.75-9.55-2.25,13.34,6.86,13,7.5c-.26.44-7-4.3-7.33-3.8s5.42,2.38,5.09,2.94c-.06.11-3-1-3-.82-.44.77.53-.24.29.17,0,.07,1,1,.9,1.1-.27.47,4.51,1.56,4.06,2.35-.15.25-4.7-2.82-4.78-2.68-.46.8,1-.19.64.37-.12.21-3.68-2.31-3.77-2.14-.47.82,4.59,2.1,4.35,2.52-.07.12,1.78,3.47,1.71,3.59-.44.76,2.27.78,2,1.18s4.26,6.49,4,6.87c-.6,1,10.29,4.18,9.53,5.5-.09.16-1,2.94-1.1,3.07-1.09,1.88,17.5,7.62,16.42,9.49-.14.25-1.93,3.86-2,4.06-1.1,1.9,53.93,28.2,52.65,30.42-1.18,2.05-40-23.19-41.15-21.2-.36.62,9.62,4.08,9,5.19" fill="none" stroke="#999" stroke-linecap="round" stroke-linejoin="round" stroke-width="1.03"/><path d="M436.07,94.68c-.26.46,3.27,1.22,3,1.72-.42.73-18.89-8.13-19.25-7.51C418,92,468.27,113.7,466.89,116.1c-1.11,1.93-51.69-32.22-53.26-29.5-2,3.45,62.33,30,59.72,34.5-1.12,1.93-59-39-61.14-35.16-1.85,3.21,61.39,29.3,58.72,33.92-1,1.68-50.91-31.13-52.29-28.74-1.79,3.11,61.32,29.37,58.7,33.91-2.84,4.92-70.12-41.49-71.82-38.54-3,5.23,87.54,42.86,84.2,48.64-2.92,5.07-90.61-55.62-94.26-49.28-4.1,7.11,93.19,47.62,90.5,52.28-2.39,4.14-86-52-87.87-48.8-4.32,7.48,99.54,52.22,97.26,56.19-3.53,6.11-100.26-59.67-102.19-56.32C390.37,94,499.46,144,496.6,148.95c-2.73,4.74-102.27-67.33-105.87-61.08-4,6.9,111.15,59.08,108.93,62.93-2.87,5-116-73.38-119.34-67.66-3,5.24,115.59,59.21,112.32,64.89-3,5.14-101.14-63.82-103.76-59.28-3.27,5.66,112.25,57.19,108.94,62.93s-110.72-72-115.16-64.33c-4.89,8.47,113.33,60.19,111,64.15-3,5.19-117.58-73.15-121.51-66.34-4.26,7.38,116.82,59.69,113.45,65.54-3.11,5.39-110-71.21-114.48-63.44-4.07,7,123.94,63.73,120.53,69.64C488,163.3,366.89,82.41,363.8,87.76c-3.81,6.6,124.83,65,121.76,70.34S372.24,86.32,368.39,93c-3.15,5.45,124.69,64.07,121.24,70-2.86,5-118.55-76.14-123.08-68.28-3.37,5.84,122,60.25,117.55,67.91-3.19,5.52-116.85-74-120-68.57-3.83,6.64,134.71,65.23,129.26,74.68-2.92,5.06-128.9-84.67-133.83-76.14-5.21,9,134.83,67.56,130.36,75.31-3.29,5.71-135.36-81.5-139.21-74.82-5.33,9.25,147.13,74,142.37,82.25-3,5.22-129.86-80-132.53-75.35-4,7,138,69.76,133.66,77.22-5.29,9.17-134.14-80.54-137.08-75.45-4.62,8,140.07,69.73,135.23,78.12C488,187.48,358.34,91,352.8,100.64c-3.26,5.65,135.89,67.8,131.25,75.83-4.38,7.59-130.19-86.39-135.54-77.13-4.22,7.32,138.15,72.43,135,78-4,6.88-129.72-81.63-133.63-74.85-5.56,9.65,142,75.3,139.08,80.35-4,6.89-135.06-85.57-138.35-79.87-2.79,4.84,140.78,68.62,135.28,78.15-4.62,8-141-87.34-144.33-81.55-5.67,9.83,152.39,73.9,146.27,84.5-3.6,6.24-143.82-88.63-147.5-82.25-2.76,4.78,150.25,80.37,147.47,85.19-4.42,7.65-141.57-90.4-145.88-82.95-5.67,9.83,144.71,76.52,141.65,81.83-4.4,7.63-137.7-82.49-141.39-76.11-5.6,9.71,145.26,76.12,141.88,82-4.35,7.54-137.25-83-140.44-77.48-6,10.42,145.46,76.17,142.05,82.07-4.4,7.62-128-76.44-131-71.33C352,129.58,487,189.58,481.89,198.49c-3.55,6.15-122.32-73.34-125.25-68.26-5.07,8.79,131.6,63.41,126.14,72.87-2.85,4.93-128.11-79.6-132-72.83-4.88,8.45,140.17,73.32,136.86,79.07C484.8,214.22,359.75,129,355,137.17c-3.14,5.45,131.5,69.84,128.85,74.44-4.6,8-124.2-77.64-128.76-69.75C351,149,487.92,206,482.48,215.44c-5.06,8.76-127.25-77.35-130.76-71.27-4.56,7.91,133.85,65.73,128.83,74.43-3.72,6.44-118.71-78.07-123.33-70.08-3.33,5.77,124.21,65.48,121.5,70.19-4.4,7.62-127.8-83.6-132.18-76-4.12,7.13,137.09,68.73,132.56,76.58-3.79,6.57-130.6-77.7-133.33-73-3.78,6.55,138.5,70.75,134.49,77.7-5.32,9.23-127.47-83.69-131.83-76.12-3,5.22,135.36,67.57,130.76,75.54-3.13,5.42-127.55-80-130.76-74.4-3.08,5.34,128.66,64.15,124.26,71.79-4.28,7.41-116.2-76-120.79-68.09-4.26,7.38,125.32,63.82,121.6,70.25-2.18,3.78-116.91-69.38-119.29-65.25-4.07,7.05,119.12,59.71,115.18,66.54-4.17,7.23-125-80.08-128.54-73.93-3.71,6.44,136.16,71.23,132.94,76.81-4.17,7.23-124.06-77.32-127.73-71-5.28,9.16,123.08,65.19,120.52,69.63-3.67,6.36-125.73-78.36-129.7-71.47-5.47,9.47,140,71.26,135.86,78.49-4,6.91-130.84-83.22-135.92-74.4-5.2,9,132.26,69,129.08,74.57-3.08,5.34-119.81-76.94-123.91-69.83-3.9,6.76,124.14,61.81,119.85,69.24s-129.32-77-132.35-71.77c-4.5,7.79,146.77,72.2,141.32,81.64C466,250.57,331,154.6,326.18,162.9S466,237.5,463.36,242.16c-3.48,6-128.94-75.92-131.32-71.8-5.81,10.07,137.81,68.36,132.94,76.8-3.22,5.59-127.73-78.91-131.74-72-5.77,10,132.13,65.74,127.54,73.69-3.28,5.69-130.45-76.16-133.26-71.29-4,6.87,131.72,64.87,126.86,73.29-2.77,4.8-132.79-80.6-135.47-76C314,183.44,456,248,453.37,252.59c-3.43,5.95-124.54-79.73-129.37-71.36-3.92,6.79,135,72.13,132.5,76.55-4.84,8.38-130.19-81.91-135.08-73.43-4.53,7.86,137.34,69.51,133.08,76.89-4.06,7-127.28-79.18-131.42-72-5.39,9.34,130.82,66.61,126.94,73.34-4.76,8.25-123.56-77.41-128-69.73-2.76,4.79,123.69,59.09,118.34,68.37-2.16,3.75-121-78.1-124.88-71.42-3.56,6.16,129.42,68.45,126.69,73.19-3.69,6.4-122.31-75.9-125.57-70.24-3.43,6,127.18,62.9,122.61,70.83-3.23,5.6-126.13-78.33-130.17-71.33C303.44,202,454.34,263.63,448.92,273c-3.11,5.39-132.18-80.88-135.33-75.43-2.94,5.1,131.89,67.81,128.26,74.1S309,185.9,304.17,194.23c-3.42,5.92,145.09,76.66,142,82-3.6,6.23-136.27-85.36-139.81-79.21-2.68,4.65,146.27,73,141.28,81.62-4,7-138.94-91.71-144.17-82.64-2.71,4.69,138.38,71.4,134.68,77.81s-129.89-82.27-133.71-75.64C301.06,204,445.6,272.89,442.63,278c-3.8,6.59-130.22-82.45-133.47-76.82-3.08,5.33,134,68.86,130.32,75.29-3.1,5.38-123.76-80.57-128.75-71.93-3.58,6.2,127.61,64.9,123.79,71.52" fill="none" stroke="#999" stroke-linecap="round" stroke-linejoin="round" stroke-width="1.03"/><path d="M151.89,341.68c-.29.51,12.77,6.69,12.47,7.21-.11.2-3.94,1.46-4,1.64-.19.33.86.06.67.39s-7.2-1.22-7.37-.91c-.34.59,12.37,6.53,12.1,7s-11.65-7.64-12.08-6.9c-.23.39,12.46,6.35,12.1,7-.27.46-10.71-2.88-11.11-2.2s12.24,6.25,11.88,6.86-11.57-6.84-11.8-6.45c-.34.6,12.2,6.27,11.86,6.85-.08.13-4.1,1.4-4.18,1.53-.21.36.95,0,.69.4-.1.17-4,.38-4.07.54-.24.41,1.59.13,1.25.72-.21.37,3.93,4.94,3.72,5.29-.33.58.36-.4.1.06-.08.13-2.53,1.06-2.58,1.16-.31.54,1.24.18,1,.58-.1.17-3.33,3.56-3.47,3.81-.26.44,11.21,5.81,10.92,6.31-.14.24-7.66.41-7.86.77s8.76,4.32,8.44,4.88-9.57-3.8-9.75-3.49,10.71,5.79,10.54,6.09-5-2.9-5.15-2.62c-.28.49,1.59.38,1.36.78s-5.87-1.4-6.08-1,10.55,5.74,10.39,6c-.37.65-10-6-10.28-5.44-.2.34,10.63,5.54,10.37,6-.09.15-.84,2.86-1,3s.68,0,.53.3c-.32.56-8.7-4.47-8.88-4.17s10.36,5.46,10.14,5.86-6.4,1.44-6.6,1.78,6.46,3.29,6.27,3.62-7.94-4.08-8.23-3.59,10,5.26,9.79,5.66-8.69-1.22-8.82-1,9.8,5.15,9.58,5.54-8.07-4-8.27-3.63,4.31,1.85,4,2.33c-.14.24-4.76-2-4.84-1.82-.21.37,9.76,5,9.47,5.47S163,411,162.75,411.51s8.49,4.61,8.36,4.83c-.31.54-12.13-3.21-12.56-2.46-.22.38,8.58,4.49,8.38,4.84-.38.65-13.27-3.07-13.57-2.55-.2.35,8.79,4.67,8.62,5s-9.87-5-10.19-4.4,8.82,4.74,8.67,5-9.69-5.11-10-4.5c-.18.32,8.88,4.76,8.72,5-.45.77-12.94-2.77-13.38-2-.17.3,6.48,3.37,6.31,3.65-.28.48-9.38-2.27-9.69-1.74s5.42,2.64,5.21,3c-.32.56-12.22-4.17-12.46-3.75s9.92,5.19,9.68,5.59c-.45.79-17.2-5.13-17.58-4.45-.23.4,10.9,5.56,10.58,6.12-.47.81-15.2-6.38-15.72-5.48-.33.57,11.25,5.76,10.93,6.31s-12.7-2.5-12.93-2.09c-.32.56,2.53.9,2.28,1.32-.36.63-8.81-5.43-9.09-4.93s12.06,6.53,11.87,6.86c-.09.16-5.26-3.2-5.37-3-.33.57,3.53,1.63,3.35,1.94-.28.49-12.73-6.48-13.2-5.66s12.41,6.52,12.13,7-11-1.8-11.19-1.4,2.73,1.14,2.54,1.47-13.41-6.15-13.83-5.43,1.64.18,1.31.76c-.14.24-6.44.8-6.6,1.07-.39.67,1.3.16,1,.6-.54.94-15.53-4.32-16-3.5s2.36.16,1.84,1.06c-.12.2,2.64,2.67,2.56,2.81-.5.87,4.51,2,4.23,2.45s-13.36-4.63-13.74-4c-.27.47,4.23,1.26,3.71,2.15S62.46,422.29,62,423.15s9.18,4.15,8.68,5S51,418.84,50.25,420.09c-.43.75,5.33,2.08,4.9,2.83-.24.42-12.58-5.43-13-4.73-.59,1,14.94,7.6,14.49,8.37-.67,1.16-18.87-10.72-19.48-9.67-.45.79,5.47,2,5,2.87" fill="none" stroke="#999" stroke-linecap="round" stroke-linejoin="round" stroke-width="1.03"/><path d="M205.5,142.52c-.15.26,7.14,3.77,7,4s.54,2.85.45,3c-.38.65,2.21.3,1.78,1-.26.46-9.27-3.06-9.54-2.58-.8,1.39,8.57,4,8.15,4.71-.16.27-10.2-1.51-10.4-1.17-1.11,1.92,15.8,7.52,15.1,8.73-.51.89-19.65-12.12-20-11.47-.93,1.61,26.34,14,25.81,14.91s-25.73-12.78-26.24-11.9c-1.2,2.08,21.73,10.12,20.67,11.94-.61,1.07-23.38-11.72-23.91-10.8-1.47,2.56,34.43,16.77,33.08,19.11-1.22,2.12-37.34-23-38.61-20.79-1.48,2.57,34.18,16.71,32.87,19-.89,1.54-27-16.05-28-14.29-1.59,2.76,24.94,10.85,23.4,13.52-.91,1.57-27.74-12.14-28.52-10.78-1.61,2.78,34.4,16.74,33,19.09-1.21,2.1-33-21-33.93-19.43s34,16.69,32.72,18.9c-.78,1.35-30.85-13.92-31.57-12.67-1,1.74,35.82,17.56,34.46,19.91-.45.77-26.55-11-27.14-10-1,1.79,40.18,19.7,38.66,22.33-1.09,1.88-45-27.11-46.44-24.59s45.36,22.32,43.68,25.23c-1.51,2.61-38.64-23.34-40.17-20.69s39.41,18.24,37.45,21.64c-1.26,2.18-35.76-19.67-36.94-17.62-1.66,2.88,39.07,20.2,38,22-1.23,2.14-34.26-20.69-35.09-19.25-1.34,2.33,32.7,15.64,31.3,18.08-.57,1-28.17-12.57-28.68-11.68-1.41,2.44,29.31,14.29,28.17,16.27-.72,1.25-25.38-15.77-26.32-14.14s25.18,11.59,23.9,13.81c-1,1.73-24.49-14.81-25.28-13.44-1.53,2.64,26.56,11.2,24.77,14.31-1,1.66-28-12.68-28.94-11.12-1.09,1.88,29.72,14.55,28.59,16.52-.56,1-21.36-8.78-21.86-7.91-1,1.67,27.91,12.58,26.38,15.24-1,1.74-36.49-21.14-37.18-19.94-1.25,2.17,32.34,16.31,31.31,18.09-.73,1.27-18-11.42-18.66-10.24-1,1.81,19.63,7.8,18.1,10.45-1,1.7-25.66-14.62-26.3-13.5-.85,1.47,37,19.34,36.11,20.86-.77,1.34-34.3-21.92-35.71-19.48-1.51,2.62,27.1,12.34,25.66,14.83-.52.9-19.89-7.11-20.56-5.93-1.59,2.76,26.29,13.19,25.42,14.69-.47.82-27.27-12-27.81-11.1-1,1.72,25.23,11.65,24,13.85-.48.83-22.18-13-23-11.65s29.81,14.83,28.77,16.62c-1.25,2.16-35.35-16.7-36.22-15.2s37.58,19.29,36.53,21.11c-1.22,2.11-30.82-19.82-31.83-18.07-.89,1.55,22.47,11.19,21.7,12.53-.42.74-21-12-21.74-10.82-1.51,2.61,29,14.87,28.16,16.27-1.19,2.06-31.53-18.62-32.3-17.28-.94,1.63,24.15,11.56,23.12,13.36-.58,1-19.12-7.58-19.84-6.34-1,1.67,23.09,11.22,22.18,12.81-.57,1-21.07-11.1-21.53-10.31-1.22,2.11,18.52,8.83,17.71,10.23-.49.84-18.2-8.76-18.88-7.58-.94,1.62,30.55,14.1,29,16.76" fill="none" stroke="#999" stroke-linecap="round" stroke-linejoin="round" stroke-width="1.03"/><path d="M57.79,90.17c-4.52,7.83,122.6,60.08,117.95,68.14C173,163.13,56.11,81,51.92,88.24S183,152.36,178,161.07C174.4,167.3,55.08,81.62,50.34,89.84c-2.4,4.15,122.27,59.78,117.57,67.92C164.08,164.41,60.2,91.34,56.8,97.24c-3.86,6.68,120,59.17,115.57,66.77C169.51,169,54,91.79,51.52,96.12c-3.94,6.82,126.21,66.11,123.26,71.21C172,172.14,53.89,91.65,51.27,96.19c-4.68,8.11,123.06,62.82,119.48,69-4.1,7.11-118.19-73.85-121.49-68.12-4.51,7.82,124.94,65.39,122,70.48C166.58,175.69,46.2,89.9,43.79,94.08c-3.59,6.21,135.28,68.67,131.18,75.78-3.4,5.9-119.12-79.27-123.9-71-2.4,4.15,126.27,65.85,123.2,71.17C169.48,178.36,51.61,91.35,47,99.34c-4.78,8.29,138.1,69.38,133.6,77.18C177.08,182.62,53.49,97.24,50.76,102c-4.5,7.81,123.35,64.31,120.35,69.53-3.93,6.81-120-68.77-122.31-64.84-4.77,8.27,130.87,62.8,125.33,72.4-3.3,5.71-122.25-75.14-125.65-69.24-2.75,4.77,134.45,64.83,128.89,74.46-2.51,4.35-134-83.46-138.4-75.83-3.74,6.48,145.76,71.44,140.23,81-2.47,4.28-130.08-84.76-135.34-75.63-3.06,5.31,144,70.75,138.64,80.1C177.62,202.37,44.19,102.85,38.91,112c-3.21,5.57,144.82,72.12,139.82,80.78C173.42,202,45.32,110,41,117.56c-5.84,10.13,145.88,70.22,139.79,80.76-3.83,6.63-137.13-82-139.6-77.76-4.47,7.75,138.48,72.57,135.27,78.15C171,208,43.18,111.62,37.74,121c-4.27,7.4,144.13,72.24,139.36,80.51C172.77,209,35.88,112,31.91,118.85c-2.69,4.66,154.89,80.07,150.82,87.13-5,8.64-148.41-93.86-152.42-86.91-4.35,7.55,147.19,77.12,143.77,83.06-4.4,7.63-133.8-82.4-137-76.8-3.76,6.52,146.9,72.35,141.48,81.74C175,213.16,37.68,121.35,34.9,126.18c-4.74,8.21,150.8,75.37,145.72,84.19C176.8,217,36.71,120.59,32.88,127.23c-2.91,5,156.61,79.71,152,87.79-3.85,6.67-148.35-93.3-153.6-84.2C26.75,138.57,183.83,207,178.63,216c-5.3,9.18-145.81-92.21-150.52-84C25,137.32,188.89,217.67,185.79,223c-5.3,9.18-151.72-97.3-157.83-86.7-6.43,11.15,147.46,78,144.34,83.39-5.74,10-144.3-89.83-148.27-83-3.6,6.24,156.1,75.42,149.71,86.49-4.06,7-141.26-89.18-146-80.92-7.16,12.41,200.86,102,194.78,112.53C219,260.89,34,130.46,26.6,143.35c-5,8.61,191,98.54,185.92,107.41-4.63,8-181.75-110-185.24-103.9C23.14,154,224.56,246,218.12,257.12c-6.71,11.63-192.23-116.07-196-109.53C16.49,157.34,218.48,248.37,213,257.86c-3.41,5.9-172.64-109.16-178.92-98.29-6.91,12,180.48,96.11,177,102.23C204.6,273,40.69,153.85,34.45,164.65,26.74,178,223.19,263.89,219,271.24,212,283.37,37.66,155.14,31,166.62c-6.22,10.79,186.16,97.94,182,105.15-7,12.07-180.47-115-186.43-104.68C20,178.62,222.31,265.47,216,276.48c-5.2,9-182.23-111.34-185.65-105.41S211.6,263.2,206.15,272.66c-6.59,11.41-174.49-109.51-179.8-100.31C18.6,185.78,210,269.23,206,276.14,201.65,283.71,33.95,167.28,29.5,175c-3.37,5.84,185.43,97.7,181.35,104.77C204.8,290.24,26.88,167.68,23,174.33c-6.93,12,191.25,94.75,184.44,106.56C201.94,290.5,23.1,170,19.52,176.18c-7,12.09,195.18,103.17,191,110.36C207,292.69,31.59,167.88,24.63,180c-6,10.33,192.07,95.3,185.29,107C205,295.54,25,166.17,18.73,177,13.9,185.38,211.79,275.27,206,285.23,202.74,291,26.72,174,22.78,180.81c-3.81,6.61,182.48,87.61,174.77,101-5.76,10-164.73-110.9-171.6-99-3.64,6.32,181.41,94.5,177,102.23-6,10.47-173.49-105.77-178.2-97.6-5.18,9,178.67,90,173,99.93C191.82,297.46,31.52,184.9,26.31,193.91c-6.59,11.42,181.79,88.44,174.61,100.88C197.11,301.4,33,191,29.36,197.3,24.47,205.77,192.08,282,188.06,289,185,294.3,24.92,186.77,20.87,193.77c0,0,3.55,1.94,3.5,2" fill="none" stroke="#999" stroke-linecap="round" stroke-linejoin="round" stroke-width="1.03"/><path d="M25,196.43c-6.72,11.64,171.86,83.16,164.88,95.26-4.83,8.37-152.29-101.32-158.15-91.17-6.88,11.92,159.88,81.86,155.33,89.74-3.93,6.82-149.36-91-152.31-85.9C30.93,211,203,289.79,197.91,298.62S28.54,186.93,21.47,199.19c-3.57,6.19,170.44,90.66,167.06,96.51-3.47,6-154.72-93.87-158.28-87.69-4.67,8.1,157.62,80.8,153.18,88.5-3.2,5.55-152.51-92.93-155.94-87-5.84,10.12,157.15,82,153.33,88.58-2.75,4.76-149.41-96.38-154.25-88-4.61,8,163.89,82.77,158.74,91.71C182.33,307,24.49,203.26,20,211c-6.35,11,167.25,86.26,162.76,94C179.4,310.92,35,211,29,221.45c-3.2,5.55,159.3,80.4,154.27,89.12-2.87,5-153.85-90.29-157-84.84C20.75,235.23,181,302,175.35,311.88c-2.83,4.91-147.84-98.4-153.78-88.11-3.55,6.15,155,75.21,148.8,86C164.52,319.88,26.16,214,20.7,223.42c-3.73,6.47,156.35,80.33,152,87.83-5,8.73-138.95-89.59-143.41-81.86-2.83,4.91,142,73.3,138.21,79.84-5.22,9-140.5-92-145.2-83.8-3.27,5.67,153.08,81.63,150.14,86.74S37,223.83,31.53,233.36c-5,8.73,139.56,68.65,134.37,77.63-4.56,7.9-139.94-82.25-142.38-78-4.88,8.46,147.72,77.41,144.29,83.36C165.12,321,34.14,228.06,28.58,237.69c-3.94,6.83,149.34,76.54,145.13,83.84-4.87,8.44-138.2-92.11-143.9-82.24-4.22,7.31,140.19,66.83,134.06,77.45C160.1,323.3,26,234.67,23.3,239.39c-5.32,9.23,147,73.21,142,82C162.58,326,30.71,237.59,27.57,243c-3.6,6.24,140.55,68.77,135.17,78.09-3.93,6.8-129.94-78.28-132.47-73.9-4.59,8,142.48,76.16,139.82,80.78-5.22,9.05-140.83-82.81-144-77.27-3.66,6.34,135.51,67.27,130.74,75.53-2.93,5.08-133.27-80.66-136-75.93C16.45,257.9,171,323.85,165.28,333.8c-4.65,8.05-127.59-81.43-132.62-72.72C27.74,269.6,162,328.57,158.9,334,154.25,342.07,29.78,254.53,27,259.28,22,268,166,332.69,163,337.84c-3.59,6.22-137.12-81.92-140.33-76.36-3.51,6.08,142.27,73.48,138.5,80-5.07,8.79-126-75.24-128.33-71.13-2.46,4.26,126.2,67.31,123.78,71.51C151.91,350,32.44,260.64,28.15,268.08c-2.74,4.76,138.49,72.07,135.06,78-4.77,8.27-135.81-82.87-140-75.62-3.71,6.42,127,63.6,122.76,70.92C143.42,345.82,31.65,271.49,28.46,277c-3.45,6,108.62,56.2,105.79,61.11C130.56,344.53,29.82,276.66,26.76,282c-2,3.49,112,59.31,109.69,63.37-2.64,4.58-102.07-60-105-55-4.17,7.23,99.51,49.38,96,55.46-2.25,3.89-91.85-55.27-94-51.48s87.8,43.42,84.64,48.9c-1.62,2.8-85.21-50.92-87.94-46.19-2.84,4.92,86.17,45.56,84.34,48.73s-77.07-43.39-79.06-39.93c-2.78,4.82,80.83,42.38,79,45.62s-74.3-45.91-76.25-42.53,73.73,37.24,71.41,41.25c-2,3.54-66.08-38.32-68.2-34.65S103.9,344.87,101,350c-2.22,3.84-59.89-31.71-61.14-29.55-1.44,2.49,50.22,24.05,48.07,27.77-1.35,2.35-51-29.08-52.08-27.17s47.14,23.43,45.49,26.28c-.94,1.62-36.84-22.59-38.35-20-1.4,2.43,34.23,17.4,33.2,19.18-1.55,2.69-41.27-24.94-42.74-22.4-1.25,2.16,39.58,20.15,38.4,22.19" fill="none" stroke="#999" stroke-linecap="round" stroke-linejoin="round" stroke-width="1.03"/><path d="M164.92,78.61c-.18.31,10.55,5.64,10.35,6-.51.88-22.6-10.45-23-9.69-1.25,2.16,30.17,15.19,29.2,16.87-.73,1.27-34.12-20.83-35.15-19-1.41,2.45,41.92,19.92,40.06,23.14-.76,1.31-40-26.36-41.46-23.79-1.32,2.28,40.66,19.11,38.76,22.39-.6,1-31.7-18.81-32.55-17.34-1.3,2.26,39.43,18.38,37.52,21.68s-49.27-28.25-50.46-26.2c-2.23,3.87,63.4,30.92,60.92,35.2-2.21,3.83-68.9-41-71.66-36.22-3.17,5.5,68.56,34.81,66.48,38.41-1.73,3-62.75-37.41-64.1-35.07-3.38,5.85,74.8,39.08,73,42.18-2.71,4.7-77.34-45.4-78.83-42.83-2.23,3.87,82.36,42.29,80.07,46.26-2.13,3.69-79.72-52.46-82.53-47.59-3.19,5.53,87.36,46.35,85.58,49.44-2.31,4-93.75-59-96.41-54.41-2.44,4.23,91.87,47,89.23,51.55-2.31,4-78.84-49.6-80.88-46.07-2.65,4.59,88.66,45,86,49.67s-89.32-57.65-92.89-51.46c-4,6.95,90.32,47.84,88.44,51.09C198.13,127,103.5,63,100.26,68.65c-3.82,6.62,103.82,53,100.79,58.23-2.79,4.84-99-63.8-103-56.82-3.7,6.41,112.25,57.69,109.15,63.06C203.78,139,91.81,64.62,89,69.56c-3.37,5.85,109.36,56.89,106.64,61.61s-99.79-62.89-103.18-57c-2.73,4.74,106.51,54.61,103.51,59.8-2.47,4.28-102.59-65.49-106.5-58.7-2.88,5,101.4,49.84,97.62,56.39C184.38,136.26,89.4,70,86.81,74.47c-3.27,5.66,113.52,54.84,108.87,62.9-2.48,4.3-109.6-71.81-113.78-64.56C77.47,80.48,195,129.37,191.17,135.94c-2.84,4.92-117-69.64-120.28-63.89-4.47,7.75,123,61.84,119,68.76-2.49,4.31-107.29-65.86-109.5-62C77,84.62,193.83,136,190.23,142.22c-4.4,7.63-111.92-66.56-114.36-62.32C72,86.55,190.1,136.59,186.08,143.57c-3.58,6.21-110.39-73-114.95-65.07-2.71,4.7,109.84,54.56,106,61.23C173.55,145.92,70.85,69.44,66.49,77,63,83.07,178.62,135.64,176,140.24c-3.23,5.6-105.8-66.13-109-60.61-4.62,8,115.72,61.26,113.3,65.46-3.24,5.61-109.91-69.62-112.58-65-2.32,4,114,55.34,109.48,63.25C173.38,149.95,61,71.72,58.26,76.47c-4.7,8.15,125.18,60.59,120.1,69.39C175.38,151,59.27,73,56.23,78.27c-2.29,4,123.45,66,121.14,70-3.63,6.29-116.42-74.1-120-68-4.71,8.16,117.85,62.2,115.3,66.61-3.63,6.29-113.88-67.23-116.91-62C51.11,93,174.69,147.09,171.86,152,168,158.7,49.39,78.31,46.55,83.24c-5.39,9.34,129.59,67.82,126.54,73.11-4.48,7.76-130.28-77.88-133.28-72.68-.1.17,7.75,4,7.56,4.37S37.18,85.75,37,86.13,44.38,90,44.18,90.3s-5.6-.15-5.75.11,2.21,1,2.1,1.21-8.41-1.05-8.69-.58c-.11.19,7.13,3.91,7,4.07-.31.53-9.39-1.49-9.69-1-.14.24,6.95,3.6,6.77,3.91-.31.54-8.92-1.38-9.14-1s7.05,3.68,6.88,4-7.17-3.58-7.43-3.12c-.11.2,6.9,3.78,6.81,3.93-.22.38-6.5-3.9-6.72-3.52s2.08.85,1.93,1.11-3.48,1.87-3.55,2,4.52,2.31,4.39,2.53-1.68-1.06-1.74-1,.81.13.67.38-4.32-1.58-4.42-1.41,6.77,3.58,6.62,3.83c-.24.42-7.16-3-7.42-2.59-.14.24,6.82,3.65,6.69,3.87s-8.19-1.4-8.34-1.14,6.89,3.67,6.75,3.9-6.44-3.81-6.62-3.5,1.78.78,1.67,1-3,.94-3,1.08c-.17.29,6.71,3.68,6.62,3.83-.17.3-6.77-.88-7-.56s3.69,1.81,3.55,2.05-6,.2-6.17.56,7.07,3.83,7,4-7.36-3-7.59-2.63c-.14.23,7.14,3.78,7,4s-7.51,0-7.67.25,5.18,2.55,5,2.88-7-.35-7.17,0S21.07,127,21,127.16c-.21.36-8.64-1.25-8.78-1-.23.39,8.13,4.25,7.94,4.59s-8.83-1.51-9.07-1.09,8.43,4.43,8.24,4.76-9.6-.27-9.78,0,9.16,4.78,8.94,5.16S9.19,136.15,9,136.45s9.24,5,9.11,5.27c-.23.41-9.52-2.88-9.85-2.31-.2.35,9.66,5.28,9.53,5.51-.33.57-10-2-10.38-1.39s10.24,5.38,10,5.78-10.31-2.74-10.61-2.22,10.69,5.66,10.47,6c-.36.62-10.49-2.62-10.82-2-.17.29,11.12,5.68,10.79,6.24-.18.32-10.53-6.11-10.85-5.54-.22.37,11,6,10.86,6.27-.3.52-10.62-4.44-10.88-4s11.22,5.84,10.94,6.32c-.16.28-7.26-.8-7.47-.44-.35.6,6.2,2.82,5.87,3.39-.18.31-8.47-2.56-8.66-2.25s10.24,5.45,10,5.8-9.41-4.09-9.73-3.54c-.15.27,6.1,3.2,6,3.44s-3.76-.81-3.85-.66,5.27,2.55,5.06,2.92-7.94-4.61-8.23-4.1c-.11.2,8.35,4.47,8.2,4.74s-6.87-2.79-7.06-2.47,2.13.95,2,1.16-3.74-2.08-3.83-1.92,8.19,4.38,8,4.64-8.95-2.16-9.27-1.61c-.14.24,7.89,4.22,7.74,4.47s-9.11,0-9.34.44c-.12.21,8.23,4.46,8.1,4.68s-6.37-.65-6.58-.29,3.23,1.61,3.12,1.8-5.42-2-5.6-1.69,9.14,4.72,8.9,5.14c-.15.26-1.25,4.28-1.33,4.42-.21.37,2.21.67,1.95,1.13-.16.28-.44,5.43-.55,5.61-.21.36,1.2.23,1,.58-.31.54-8.25-3.73-8.46-3.37s9.85,5.12,9.6,5.55-7.29.77-7.52,1.19,7.56,4,7.39,4.27-7.1-1-7.34-.6c-.1.18,7.43,3.88,7.25,4.19s-7.08-2.72-7.22-2.49,7.34,3.86,7.18,4.15-7-.2-7.08,0,7.34,4,7.25,4.19-6.93-1.41-7.14-1c-.09.15,5.8,3,5.65,3.26s-5.48-2.84-5.64-2.56,7.42,4,7.31,4.22-7.11-3.59-7.28-3.3,7.43,4,7.32,4.23S6,216.17,5.88,216.44s7.54,3.91,7.35,4.25-6.94.54-7.17.93,7.7,4,7.52,4.35-7.15-2-7.4-1.53c-.13.23,7.89,4.07,7.68,4.44s-7.5-3.95-7.65-3.69,7.94,4.08,7.72,4.46-7.41-1.38-7.57-1.1,8.14,4.17,7.91,4.57-7.65-4.79-7.9-4.35c-.11.19,8.08,4.3,7.92,4.58-.27.47-7.65-2.8-7.81-2.51s8.15,4.4,8,4.63c-.23.4-7.61-1.09-7.81-.75s8.48,4.37,8.25,4.76-8-3.76-8.17-3.38,8.59,4.47,8.38,4.84c-.06.1-3.16,1.71-3.24,1.85-.19.33,3.86,1.64,3.61,2.08s-7.88.12-8.15.59c-.16.28,9.35,5,9.16,5.29-.3.52-8.76-2.18-8.91-1.92s9.62,5.19,9.46,5.47-6.27,1.72-6.46,2,1.53.26,1.26.73c-.18.3-3.07,3.57-3.23,3.86s10.86,5.86,10.68,6.17-10-3.21-10.35-2.66c-.16.27,11.41,5.92,11.12,6.43s-10.34-.89-10.5-.6c-.35.61,12.11,6.23,11.78,6.8s-10.86-1.84-11.14-1.34,12.76,6.53,12.4,7.16c-.13.23-3.68,2.39-3.8,2.6s4.56,1.68,4.15,2.4c-.25.44-11.63-5.88-11.85-5.5s13.53,6.87,13.12,7.58c-.31.53-12.51-7.39-13-6.58-.34.6,13.56,7.11,13.24,7.65s-9.14-4.27-9.3-4c-.31.53,4.14,1.71,3.85,2.22,0,.06-1.67-.08-1.72,0-.36.62,7.24,3.57,7,4-.15.26-5.09.78-5.25,1.06-.29.5,1.07-.45.61.35-.13.23-4.41,2.73-4.52,2.92-.26.46,4.69,1.65,4.23,2.44,0,.08,1,1.59,1,1.65-.29.5,1.75.1,1.36.78-.13.23-3.71.93-3.83,1.14-.39.68,10.19,5.1,9.85,5.69-.17.29-7.53-.14-7.72.2-.31.55,11.17,5.59,10.8,6.24-.14.24-4.48-2.4-4.65-2.11-.48.84,3.83,1.2,3.39,2-.09.15-4.62,2.54-4.8,2.85-.44.76,3.57.84,3,1.76-.05.09-2.34,1.5-2.41,1.62-1.79,3.09,48.48,23.28,46.44,26.83-.88,1.53-42-27-43.41-24.5-2,3.4,41.53,19.93,39.77,23-1.48,2.56-42.61-21.66-43.73-19.71s26.41,12.69,25.3,14.62c-.57,1-18.6-6.89-19.25-5.77-.12.21,1.17.22,1,.56-.06.11-.54,2.18-.62,2.31s2.76,1.07,2.54,1.46-6.15,0-6.3.3,8.61,4.62,8.45,4.88c-.27.47-8.16.11-8.39.5s8.74,4.51,8.5,4.91c-.07.11-1.63.87-1.69,1-.2.35,1.12.11.89.51s-7.46-4.47-7.68-4.1,8.65,4.71,8.53,4.93-8.2-2-8.48-1.5S36,356.6,35.78,357s-8.24-3.42-8.53-2.91c-.18.31,8.75,4.65,8.57,5s-8.27-2-8.53-1.56,8.78,4.66,8.6,5c-.32.56-8.39-5.29-8.6-4.93s8.78,4.66,8.6,5-8.33-.12-8.53.23,8.76,4.79,8.64,5c-.31.53-8.3-4.32-8.63-3.76-.15.26,8.83,4.69,8.65,5s-8.33-.81-8.59-.36,8.83,4.77,8.69,5-2.6-.69-2.64-.62c-.2.35,1.7.55,1.51.87s-7.29-.74-7.48-.4,9,4.6,8.72,5c-.09.15-4.43-.73-4.54-.55s3.28,1.53,3.12,1.81-7,.67-7.2,1,8.94,4.76,8.76,5.06-8.58-3.59-8.74-3.32,8.91,4.83,8.77,5.07-6.39,1-6.54,1.25c-.25.44.59-.12.39.23-.07.13.59,2.36.56,2.43s2.72,1.08,2.51,1.45c-.1.17-5.35,1.85-5.47,2.07s9,4.82,8.82,5.1c-.31.55-8.54-3.43-8.78-3-.13.23,8.94,4.9,8.83,5.1s-8.47-3.44-8.78-2.89c-.12.21,9.05,4.72,8.83,5.1S28.2,402,28,402.3s9,4.86,8.83,5.1-8.58-3.5-8.79-3.14,9,4.79,8.83,5.1-8.55-4.07-8.79-3.64,9,4.78,8.83,5.1c-.3.51-8.56-3.24-8.77-2.86s9,4.71,8.82,5.1c-.13.23.18,5,.08,5.2-.52.9,4.18,1.12,3.62,2.09-.27.47-11.84-3-12.21-2.4-.24.41,10.12,5.26,9.86,5.7-.36.62-9.5-4.86-9.79-4.35-.08.15,5.79,3.19,5.72,3.31-.19.33-5.58-2.62-5.68-2.45,0,0,3,1.67,3,1.71" fill="none" stroke="#999" stroke-linecap="round" stroke-linejoin="round" stroke-width="1.03"/><path d="M291.3,430.46c18.34,9.17,33.51,18.82,34,14.54,7.46-5.61,52.43-78.68,48-81.21,32.53,3.39,99.43-88.32,96-88.29,13.55-10.69,18.87-32.32,15.68-39.91-.06,1.43,10-.86,13.66-21.6,15-54.29,5.32-81.83-59.84-117.2-56.23-36.77-110.15,11-105.7,6.31,13,4.15,17.27,30.14,10.46,45-33.84,20-40.31,57.11-39.22,50.87-2.87,1.9,6.22-38.85,26.15-52.58,23.37-4.67,14.84-37.38,2.87-31.28-15.7-1-43.36,17-50.51,21.65-15.2,11.11-24.79,49.7-22,47.24.14.53-22.83,38.09-7.32,50.63,5.44,26.16,6.27,68.31,7.35,71.92-1.92-11.1-52.48,53.57-49.54,54,8.26,31.66,51.36,55.75,82.71,66.47C291.1,433.84,291.76,426.49,291.3,430.46Zm10.62-2.67C275,415,229.69,391.62,217.77,359.27c-.58-.73,49.95-53.11,48.41-52,.84,1,42.75,62.62,101.3,66.21-.45-2.18-44.18,64-45.1,59.9-.72,1.92-9.1.17-21.68-4.79C300.74,428.52,303,426.34,301.93,427.79Zm75.42-66.15c91.68-94.46,74-102.07,79.11-99.85,21-3.94,15.2-28.53,12.86-28.33,30.54-21.29,27.45-78,25.81-75.77,19.61,37.13-16.57,82-17.62,77.78,4.32,16.43-12.32,29.48-12.95,32.35-27.41,46.24-87.91,94.59-87.79,91.29C376.77,363,376.86,359.53,377.35,361.64Z" fill="none" stroke="#666" stroke-width="2.58"/><path d="M66.91,429.58c-22.93-3.3-38.36-3-36.72-7.07-1.13-8-1.43-94.87-2.82-96.9C6.12,313,7.1,201.26,8.4,202.5c-15.4-19.66-.34-38.06,1.38-44.41-4.29.15-8.83-6.55,2.57-25.07,15-54.19,44.19-69.59,112.77-64.49,73.29,3.14,95.24,74.17,82.65,63.81-15.76-4.57-27.87,16.58-33.35,31.57,17.89,36,10.48,73,9.19,65.85,8.62,5.75,10.37-37.62-.48-61-4.66-12.74,16.51-36.37,23.82-24.63,11.87,7.46,23.8,37.58,28.1,45.64,5,17.31-8.07,54.9-9.55,51,3.81,2-2.87,44.21-20.84,46.55-16.11,19.76-43.31,53.25-44.83,55.88.85-10.18,15.19,74.51,14.07,73.59C141,435.83,99,434.23,69.08,426.15,66.76,433.21,67.28,425.81,66.91,429.58Zm-8.47-8.73c28.51,4.57,80,10.18,107.66-10,2.15.28-11.75-70.85-14.61-70.15,2.23.79-64.38,28.68-115.92-1.38-3.06-2.36.19,77.89,1.2,75.25-2.46,1.15,6.44,4.27,20.58,6.88C56.37,421.39,58.39,419.89,58.44,420.86ZM32.7,324.38C8,194,28.36,198.38,22.41,197.24c-14.58-14.84,1.56-33.38,1.13-32.9-10-32.95,26.6-76.89,26-74.38C9,107.75,16.77,166.62,16.94,162.1c-13.2,10.93-5.31,31.82-5,35.49-4,53,21,127.67,20.55,123.87C33,325.91,33,322,32.7,324.38Z" fill="none" stroke="#666" stroke-width="2.58"/><path d="M291.28,433.69c17.54,1.8,36.4,7.39,38.92,9.57,6.2-9.73,46.21-72.14,48.56-69.32,21.82-6.68,92.13-107.28,89.45-106.5,12.32.69,15.49-28.51,15.69-24.78.58.16,6-4.1,24.71-38.07,9.32-42.95-7.21-68.13-69.91-110.42-63.14-33.65-112.22,10.94-99.42,11.44,13.81,13,13.12,30.66,2.77,41.62-24.75,26.57-39.15,50.29-37.16,53.24-3-6.06,12.38-37.81,30.93-54,20.8-7,3.95-25.64.95-34.16-14.06.18-38.78,22.05-50.65,29.24-13.49,5.84-31.5,47.21-32.46,49.25C256.14,191,240,220,253.09,242c12.3,12.28,9.29,56.39,12.25,55.68,1.53,1.22-54.24,61.58-62.42,61.46,18.11,31.54,61.74,52.81,83.53,70.67C291.55,429.37,290.93,425.69,291.28,433.69Zm11.51-4.82c-28.32-14.91-70.74-39.2-83.69-71.76,1.2.89,48.65-47.23,49.16-48.27-2.93,1.53,40.57,58.14,99,61.79-1.69,1.92-45.57,64-46.17,66.7,1-1.37-9.49-3.78-16.64-10.51C304.32,427.38,301.74,426.11,302.79,428.86Zm73.87-65.19c91-97.07,75.4-106.74,82.5-104.91,18.86-2.29,11.47-21.09,12.94-21.12,24.75-23.34,23.69-85,22.77-86.75,18.45,47.1-17.89,86.48-18.1,88.52,5.08,15.64-13.09,27.28-8.69,23.78-27.8,49.7-90.05,98.13-93.27,98.4C375.28,358.86,377.19,358.89,376.66,363.67Z" fill="none" stroke="#4c4c4c" stroke-width="1.93"/><path d="M66.89,433.05c-22.82-10.92-34.8-14.48-34.11-12.49.55-11.65-2.95-87.57-3.2-85.24C5,313.87,9.65,193.61,3.54,193.19c-7.89-5.64,5.25-31.72,1.18-29.27,4.68,1.45-3.27-7.15,11.09-41.71C34.93,82.12,58,68.85,123.9,65.63c67.84,6,92.29,73.4,90.92,70.13-19,2.72-34.63,15.63-40.21,27.88,21.47,41.13,7.88,64.67,11.59,68.53,4-4.12,10.86-38.38,2.88-62.54-9.66-16.39,4.42-26.05,22.72-27.4,8.43,6.73,22,40.51,29.36,53.76-1,9.19-20.52,49.6-17.59,53.08-1.76-1.28-3.25,32.3-15.88,47-17,3.27-46.67,38.92-42,39.21-1.15.22,8,80.16,5,81.44-31.13,16.41-71.25,12.48-107.62,12.41C67.11,428.48,66.62,424.78,66.89,433.05Zm-8.71-11.43c28.24,2.77,80.51,7.34,111.75-11.5-1.6-.18-17-67.68-15.1-68.31-4.07,1-67.24,25.72-122.05-5.37,1.16,2.16,3.44,78.9,1.09,80.61,2.7-.77,9.43,1.8,25.82,3.16C60.54,420.57,58.27,419.71,58.18,421.62ZM32.94,326.72c-24.78-133-4.26-131.2-9.92-133.2-14.33-12.24.95-24.33,1.1-24.62C13.32,134.27,49.79,84.11,49.54,82.15,9.43,111.89,16.78,164.29,16.2,166.29c-11.67,10.86-4.52,30-3.64,25.6C9.4,249.61,32.92,324,32.34,324.32,32,321.18,32.65,321.22,32.94,326.72Z" fill="none" stroke="#4c4c4c" stroke-width="1.93"/></svg>